<mxfile host="app.diagrams.net" agent="Mozilla/5.0 (X11; Linux x86_64) AppleWebKit/537.36 (KHTML, like Gecko) Chrome/133.0.0.0 Safari/537.36" version="26.0.14">
  <diagram name="Page-1" id="qVpKwolUWXVf6xSGb1cO">
    <mxGraphModel dx="1562" dy="863" grid="1" gridSize="10" guides="1" tooltips="1" connect="1" arrows="1" fold="1" page="1" pageScale="1" pageWidth="850" pageHeight="1100" math="0" shadow="0">
      <root>
        <mxCell id="0" />
        <mxCell id="1" parent="0" />
        <mxCell id="OH58bXHrqPtd7j3-NQaF-16" value="VPC" style="ellipse;shape=cloud;whiteSpace=wrap;html=1;align=center;labelPosition=center;verticalLabelPosition=bottom;verticalAlign=top;" vertex="1" parent="1">
          <mxGeometry x="118.85" y="140" width="520" height="530" as="geometry" />
        </mxCell>
        <mxCell id="OH58bXHrqPtd7j3-NQaF-21" style="edgeStyle=orthogonalEdgeStyle;rounded=0;orthogonalLoop=1;jettySize=auto;html=1;" edge="1" parent="1" source="OH58bXHrqPtd7j3-NQaF-3" target="OH58bXHrqPtd7j3-NQaF-5">
          <mxGeometry relative="1" as="geometry" />
        </mxCell>
        <mxCell id="OH58bXHrqPtd7j3-NQaF-24" value="HTTP" style="edgeLabel;html=1;align=center;verticalAlign=middle;resizable=0;points=[];" vertex="1" connectable="0" parent="OH58bXHrqPtd7j3-NQaF-21">
          <mxGeometry x="0.0221" y="4" relative="1" as="geometry">
            <mxPoint as="offset" />
          </mxGeometry>
        </mxCell>
        <mxCell id="OH58bXHrqPtd7j3-NQaF-29" style="edgeStyle=orthogonalEdgeStyle;rounded=0;orthogonalLoop=1;jettySize=auto;html=1;" edge="1" parent="1" source="OH58bXHrqPtd7j3-NQaF-3" target="OH58bXHrqPtd7j3-NQaF-22">
          <mxGeometry relative="1" as="geometry" />
        </mxCell>
        <mxCell id="OH58bXHrqPtd7j3-NQaF-42" value="Light client&lt;br&gt;(smol-dot/substrate-connect)" style="edgeLabel;html=1;align=center;verticalAlign=middle;resizable=0;points=[];" vertex="1" connectable="0" parent="OH58bXHrqPtd7j3-NQaF-29">
          <mxGeometry x="0.0408" relative="1" as="geometry">
            <mxPoint as="offset" />
          </mxGeometry>
        </mxCell>
        <mxCell id="OH58bXHrqPtd7j3-NQaF-38" style="edgeStyle=orthogonalEdgeStyle;rounded=0;orthogonalLoop=1;jettySize=auto;html=1;" edge="1" parent="1" source="OH58bXHrqPtd7j3-NQaF-3" target="OH58bXHrqPtd7j3-NQaF-28">
          <mxGeometry relative="1" as="geometry">
            <mxPoint x="750" y="30" as="targetPoint" />
            <Array as="points">
              <mxPoint x="838" y="220" />
              <mxPoint x="750" y="220" />
              <mxPoint x="750" y="65" />
            </Array>
          </mxGeometry>
        </mxCell>
        <mxCell id="OH58bXHrqPtd7j3-NQaF-3" value="Mobile App" style="sketch=0;verticalLabelPosition=bottom;sketch=0;aspect=fixed;html=1;verticalAlign=top;strokeColor=none;fillColor=#000000;align=center;outlineConnect=0;pointerEvents=1;shape=mxgraph.citrix2.mobile;" vertex="1" parent="1">
          <mxGeometry x="825" y="305" width="25.255" height="50" as="geometry" />
        </mxCell>
        <mxCell id="OH58bXHrqPtd7j3-NQaF-18" style="edgeStyle=orthogonalEdgeStyle;rounded=0;orthogonalLoop=1;jettySize=auto;html=1;entryX=1;entryY=0.7;entryDx=0;entryDy=0;" edge="1" parent="1" source="OH58bXHrqPtd7j3-NQaF-5" target="OH58bXHrqPtd7j3-NQaF-8">
          <mxGeometry relative="1" as="geometry" />
        </mxCell>
        <mxCell id="OH58bXHrqPtd7j3-NQaF-19" style="edgeStyle=orthogonalEdgeStyle;rounded=0;orthogonalLoop=1;jettySize=auto;html=1;" edge="1" parent="1" source="OH58bXHrqPtd7j3-NQaF-5" target="OH58bXHrqPtd7j3-NQaF-7">
          <mxGeometry relative="1" as="geometry" />
        </mxCell>
        <mxCell id="OH58bXHrqPtd7j3-NQaF-34" style="edgeStyle=orthogonalEdgeStyle;rounded=0;orthogonalLoop=1;jettySize=auto;html=1;" edge="1" parent="1" source="OH58bXHrqPtd7j3-NQaF-5" target="OH58bXHrqPtd7j3-NQaF-28">
          <mxGeometry relative="1" as="geometry" />
        </mxCell>
        <mxCell id="OH58bXHrqPtd7j3-NQaF-40" style="edgeStyle=orthogonalEdgeStyle;rounded=0;orthogonalLoop=1;jettySize=auto;html=1;" edge="1" parent="1" source="OH58bXHrqPtd7j3-NQaF-5" target="OH58bXHrqPtd7j3-NQaF-37">
          <mxGeometry relative="1" as="geometry">
            <mxPoint x="940" y="200" as="targetPoint" />
            <Array as="points">
              <mxPoint x="603" y="220" />
              <mxPoint x="640" y="220" />
              <mxPoint x="640" y="200" />
              <mxPoint x="955" y="200" />
            </Array>
          </mxGeometry>
        </mxCell>
        <mxCell id="OH58bXHrqPtd7j3-NQaF-41" value="Backend -&amp;gt; IBAN Provider: HTTP&lt;br&gt;IBAN Provider -&amp;gt; Backend: Webhook" style="edgeLabel;html=1;align=center;verticalAlign=middle;resizable=0;points=[];" vertex="1" connectable="0" parent="OH58bXHrqPtd7j3-NQaF-40">
          <mxGeometry x="0.2908" y="2" relative="1" as="geometry">
            <mxPoint as="offset" />
          </mxGeometry>
        </mxCell>
        <mxCell id="OH58bXHrqPtd7j3-NQaF-5" value="Google cloud run&lt;br&gt;(Fastify backend)" style="sketch=0;outlineConnect=0;fontColor=#232F3E;gradientColor=none;fillColor=#232F3D;strokeColor=none;dashed=0;verticalLabelPosition=bottom;verticalAlign=top;align=center;html=1;fontSize=12;fontStyle=0;aspect=fixed;pointerEvents=1;shape=mxgraph.aws4.traditional_server;" vertex="1" parent="1">
          <mxGeometry x="580" y="290" width="45.57" height="79" as="geometry" />
        </mxCell>
        <mxCell id="OH58bXHrqPtd7j3-NQaF-20" style="edgeStyle=orthogonalEdgeStyle;rounded=0;orthogonalLoop=1;jettySize=auto;html=1;" edge="1" parent="1" source="OH58bXHrqPtd7j3-NQaF-7" target="OH58bXHrqPtd7j3-NQaF-3">
          <mxGeometry relative="1" as="geometry" />
        </mxCell>
        <mxCell id="OH58bXHrqPtd7j3-NQaF-23" value="Google push notification" style="edgeLabel;html=1;align=center;verticalAlign=middle;resizable=0;points=[];" vertex="1" connectable="0" parent="OH58bXHrqPtd7j3-NQaF-20">
          <mxGeometry x="0.1907" y="-1" relative="1" as="geometry">
            <mxPoint as="offset" />
          </mxGeometry>
        </mxCell>
        <mxCell id="OH58bXHrqPtd7j3-NQaF-7" value="Google Firebase notification&lt;br&gt;(Trigger notification service)" style="sketch=0;outlineConnect=0;fontColor=#232F3E;gradientColor=none;fillColor=#232F3D;strokeColor=none;dashed=0;verticalLabelPosition=bottom;verticalAlign=top;align=center;html=1;fontSize=12;fontStyle=0;aspect=fixed;pointerEvents=1;shape=mxgraph.aws4.traditional_server;" vertex="1" parent="1">
          <mxGeometry x="590" y="472" width="44.99" height="78" as="geometry" />
        </mxCell>
        <mxCell id="OH58bXHrqPtd7j3-NQaF-8" value="Firestore or MongoDB" style="shape=datastore;whiteSpace=wrap;html=1;verticalAlign=top;fontSize=12;labelBackgroundColor=none;labelPosition=center;verticalLabelPosition=bottom;align=center;" vertex="1" parent="1">
          <mxGeometry x="380" y="472" width="60" height="60" as="geometry" />
        </mxCell>
        <mxCell id="OH58bXHrqPtd7j3-NQaF-13" value="Google Cloud Identity Manager" style="shape=datastore;whiteSpace=wrap;html=1;verticalAlign=top;fontSize=12;labelBackgroundColor=none;labelPosition=center;verticalLabelPosition=bottom;align=center;" vertex="1" parent="1">
          <mxGeometry x="370" y="309" width="60" height="60" as="geometry" />
        </mxCell>
        <mxCell id="OH58bXHrqPtd7j3-NQaF-17" style="edgeStyle=orthogonalEdgeStyle;rounded=0;orthogonalLoop=1;jettySize=auto;html=1;entryX=0.56;entryY=0.647;entryDx=0;entryDy=0;entryPerimeter=0;" edge="1" parent="1" source="OH58bXHrqPtd7j3-NQaF-5" target="OH58bXHrqPtd7j3-NQaF-13">
          <mxGeometry relative="1" as="geometry" />
        </mxCell>
        <mxCell id="OH58bXHrqPtd7j3-NQaF-22" value="Polkadot AH" style="shape=image;html=1;verticalAlign=top;verticalLabelPosition=bottom;labelBackgroundColor=#ffffff;imageAspect=0;aspect=fixed;image=https://cdn1.iconfinder.com/data/icons/cryptocurrency-blockchain-fintech-free/32/Cryptocurrency_blockchain_data-37-128.png" vertex="1" parent="1">
          <mxGeometry x="1110" y="290" width="60" height="60" as="geometry" />
        </mxCell>
        <mxCell id="OH58bXHrqPtd7j3-NQaF-35" style="edgeStyle=orthogonalEdgeStyle;rounded=0;orthogonalLoop=1;jettySize=auto;html=1;" edge="1" parent="1" source="OH58bXHrqPtd7j3-NQaF-28" target="OH58bXHrqPtd7j3-NQaF-5">
          <mxGeometry relative="1" as="geometry" />
        </mxCell>
        <mxCell id="OH58bXHrqPtd7j3-NQaF-36" value="Backend -&amp;gt; KYC Provider: HTTP&lt;br&gt;KYC Provider -&amp;gt; Backend: Webhook" style="edgeLabel;html=1;align=center;verticalAlign=middle;resizable=0;points=[];" vertex="1" connectable="0" parent="OH58bXHrqPtd7j3-NQaF-35">
          <mxGeometry x="-0.3864" y="-3" relative="1" as="geometry">
            <mxPoint as="offset" />
          </mxGeometry>
        </mxCell>
        <mxCell id="OH58bXHrqPtd7j3-NQaF-28" value="KYC Provider" style="sketch=0;outlineConnect=0;fontColor=#232F3E;gradientColor=none;fillColor=#232F3D;strokeColor=none;dashed=0;verticalLabelPosition=bottom;verticalAlign=top;align=center;html=1;fontSize=12;fontStyle=0;aspect=fixed;pointerEvents=1;shape=mxgraph.aws4.traditional_server;" vertex="1" parent="1">
          <mxGeometry x="610" y="40" width="28.85" height="50" as="geometry" />
        </mxCell>
        <mxCell id="OH58bXHrqPtd7j3-NQaF-37" value="IBAN Provider" style="sketch=0;outlineConnect=0;fontColor=#232F3E;gradientColor=none;fillColor=#232F3D;strokeColor=none;dashed=0;verticalLabelPosition=bottom;verticalAlign=top;align=center;html=1;fontSize=12;fontStyle=0;aspect=fixed;pointerEvents=1;shape=mxgraph.aws4.traditional_server;" vertex="1" parent="1">
          <mxGeometry x="940" y="40" width="28.85" height="50" as="geometry" />
        </mxCell>
      </root>
    </mxGraphModel>
  </diagram>
</mxfile>
